<svg id="visual" viewBox="0 0 960 540" width="960" height="540" xmlns="http://www.w3.org/2000/svg" xmlns:xlink="http://www.w3.org/1999/xlink" version="1.1"><rect x="0" y="0" width="960" height="540" fill="#001220"></rect><defs><linearGradient id="grad1_0" x1="43.8%" y1="100%" x2="100%" y2="0%"><stop offset="14.444444444444446%" stop-color="#001220" stop-opacity="1"></stop><stop offset="85.55555555555554%" stop-color="#001220" stop-opacity="1"></stop></linearGradient></defs><defs><linearGradient id="grad2_0" x1="0%" y1="100%" x2="56.3%" y2="0%"><stop offset="14.444444444444446%" stop-color="#001220" stop-opacity="1"></stop><stop offset="85.55555555555554%" stop-color="#001220" stop-opacity="1"></stop></linearGradient></defs><g transform="translate(960, 540)"><path d="M-351 0C-353.9 -41.5 -356.8 -83 -333.8 -108.5C-310.8 -133.9 -261.9 -143.3 -238.7 -173.4C-215.5 -203.5 -218 -254.3 -195.1 -268.6C-172.3 -282.9 -123.9 -260.6 -87.1 -268.2C-50.4 -275.8 -25.2 -313.4 0 -351L0 0Z" fill="#FBAE3C"></path></g><g transform="translate(0, 0)"><path d="M351 0C319.1 26.7 287.2 53.4 282.5 91.8C277.7 130.2 300.1 180.3 284 206.3C267.8 232.4 213.2 234.4 175.7 241.9C138.3 249.4 117.9 262.4 91.5 281.5C65 300.6 32.5 325.8 0 351L0 0Z" fill="#FBAE3C"></path></g></svg>